<?xml version="1.0" encoding="UTF-8" standalone="no"?>
<svg
   width="800"
   height="800"
   viewBox="0 0 800 800"
   version="1.1"
   id="svg10"
   sodipodi:docname="a-hh-logo.svg"
   inkscape:version="1.4.2 (ebf0e940, 2025-05-08)"
   xmlns:inkscape="http://www.inkscape.org/namespaces/inkscape"
   xmlns:sodipodi="http://sodipodi.sourceforge.net/DTD/sodipodi-0.dtd"
   xmlns="http://www.w3.org/2000/svg"
   xmlns:svg="http://www.w3.org/2000/svg">
  <defs
     id="defs10" />
  <sodipodi:namedview
     id="namedview10"
     pagecolor="#ffffff"
     bordercolor="#000000"
     borderopacity="0.25"
     inkscape:showpageshadow="2"
     inkscape:pageopacity="0.0"
     inkscape:pagecheckerboard="0"
     inkscape:deskcolor="#d1d1d1"
     inkscape:zoom="0.42"
     inkscape:cx="310.71429"
     inkscape:cy="452.38095"
     inkscape:window-width="1512"
     inkscape:window-height="839"
     inkscape:window-x="0"
     inkscape:window-y="38"
     inkscape:window-maximized="1"
     inkscape:current-layer="svg10" />
  <path
     fill="#1e2728"
     d="m 371.507,231.099 c 25.049,-1.143 52.632,0.484 77.229,5.231 55.478,10.706 111.13,40.079 149.215,82.091 7.674,8.465 14.56,17.833 21.138,27.162 8.117,11.512 15.36,22.719 26.324,31.854 10.589,8.824 23.414,15.66 35.699,21.793 4.809,2.401 9.841,4.416 14.486,7.132 3.147,1.841 6.497,3.915 7.352,7.7 1.132,5.005 -1.691,11.687 -5.707,14.728 -5.85,4.431 -40.49,15.371 -49.665,18.544 -33.405,11.678 -66.554,24.076 -99.424,37.184 -5.791,2.281 -11.59,4.618 -17.463,6.678 -4.357,1.529 -9.052,2.675 -13.18,4.754 -3.301,1.662 -6.693,4.141 -8.533,7.406 -4.513,8.011 -7.083,23.693 -9.226,32.778 l -13.272,57.544 -7.056,30.733 c -1.906,7.955 -4.496,16.069 -5.257,24.231 -0.722,7.746 5.683,13.185 4.813,20.701 -0.891,7.703 -7.34,16.426 -5.426,23.956 2.912,11.462 11.803,25.088 18.739,34.617 4.827,6.631 11.336,13.532 13.53,21.524 l 0.195,0.72 c -1.241,3.755 -3.294,7.19 -6.013,10.062 -1.863,1.939 -4.045,3.594 -6.044,5.395 -8.108,7.305 -12.246,8.795 -23.273,8.883 -16.018,0.129 -45.408,-29.214 -56.499,-40.774 -3.176,-3.31 -5.883,-7.057 -9.17,-10.251 l -0.386,-0.372 c -18.275,-1.761 -24.537,-5.302 -32.289,-22.316 -1.584,-3.476 -3.083,-6.588 -6.435,-8.731 -3.093,-1.976 -7.024,-2.747 -10.333,-4.361 -13.259,-6.47 -26.57,-12.858 -39.327,-20.292 -13.623,-7.94 -27.627,-15.701 -40.757,-24.413 -7.508,-4.982 -15.095,-9.908 -22.505,-15.032 -6.236,-4.313 -12.322,-8.954 -18.92,-12.704 -4.06,-0.037 -8.198,0.103 -12.246,-0.15 -7.512,-0.47 -14.506,-3.614 -19.446,-9.292 4.132,-7.397 11.213,-13.265 16.164,-20.259 13.296,-18.784 21.911,-39.212 38.715,-55.449 8.231,-8.294 19.873,-14.83 31.447,-16.679 21.467,-3.43 51.71,5.718 73.426,9.169 7.195,1.143 14.5,2.779 21.801,1.837 33.894,-4.372 52.853,-29.605 81.948,-43.343 18.652,-8.808 38.342,-12.317 58.362,-16.538 7.376,-1.556 14.586,-3.608 22.011,-5.066 7.58,-1.488 66.046,-16.939 69.215,-19.598 0.266,-0.224 0.388,-0.578 0.581,-0.867 -0.141,-1.126 -0.324,-1.591 -1.036,-2.476 -5.372,-2.457 -96.945,14.932 -109.846,17.594 -7.63,1.574 -15.385,3.533 -22.95,5.411 -7.646,1.898 -16.247,4.593 -23.443,7.796 -28.125,12.518 -44.528,35.178 -76.368,41.103 -8.108,1.509 -15.089,-0.337 -23,-1.766 -28.01,-5.058 -54.176,-14.053 -82.993,-7.353 -36.139,8.402 -51.204,46.053 -68.821,74.38 -5.146,8.274 -11.337,18.963 -21.729,21.123 -6.924,1.439 -17.444,-1.781 -23.133,-5.792 -3.607,-2.544 -6.909,-6.01 -9.225,-9.769 -8.324,-13.506 -16.655,-48.221 -19.593,-64.87 -3.65,-19.811 -4.682,-40.015 -3.07,-60.094 0.704,-9.259 1.632,-18.423 3.488,-27.536 6.516,-31.999 22.301,-61.735 40.925,-88.232 11.326,-16.113 24.518,-29.804 39.404,-42.606 33.544,-29.181 73.879,-49.472 117.304,-59.012 12.956,-2.967 26.46,-3.537 39.548,-5.821 z m 66.084,308.063 c -2.029,10.937 -2.644,22.081 -4.289,33.069 -0.68,4.545 -1.742,9.02 -2.382,13.576 -1.432,10.2 -2.329,20.489 -3.639,30.709 -0.734,5.733 -2.285,11.626 -2.213,17.403 0.009,0.689 0.013,1.372 0.036,2.06 2.638,1.291 5.263,2.682 8.073,3.56 2.584,1.388 4.665,2.72 7.706,1.936 1.839,-0.474 3.649,-2.181 4.519,-3.836 2.512,-4.784 5.102,-20.902 6.435,-27.295 0.877,-4.21 2.103,-8.324 3.031,-12.517 1.006,-4.542 1.699,-9.149 2.711,-13.693 l 7.595,-33.531 c 1.775,-7.617 4.378,-15.114 4.756,-22.994 -0.538,-0.994 -1.127,-1.94 -2.283,-2.3 -0.835,-0.259 -1.634,-0.251 -2.492,-0.167 -8.606,4.218 -21.375,6.769 -27.564,14.02 z m -17.513,130.615 c 0.07,5.096 5.101,8.617 6.446,13.496 1.496,5.423 -0.076,9.864 -0.963,15.154 -1.098,6.541 12.5,20.21 17.089,24.669 3.657,3.555 9.327,9.976 14.249,10.933 1.053,-0.686 1.239,-0.732 1.704,-1.879 -0.042,-0.979 -0.179,-1.728 -0.557,-2.631 -2.112,-5.044 -4.9,-9.814 -7.17,-14.792 -2.295,-5.035 -4.114,-10.485 -6.659,-15.375 -0.53,-1.019 -1.374,-1.9 -2.212,-2.671 -3.246,-2.99 -6.694,-4.526 -9.185,-8.414 -2.62,-4.088 -4.691,-15.994 -7.958,-17.752 -1.337,-0.72 -3.293,-0.663 -4.784,-0.738 z M 334.257,272.211 c -7.307,1.346 -30.374,2.371 -34.909,7.371 -0.275,1.128 -0.36,1.206 0.107,2.252 1.026,0.711 1.817,0.962 3.056,1.124 4.63,0.607 9.598,0.152 14.303,0.553 15.964,1.36 32.019,2.942 47.945,4.689 l 34.391,4.02 c 5.285,0.628 10.513,1.633 15.827,1.997 6.522,0.771 25.649,4.255 30.355,1.443 0.626,-1.01 0.59,-1.068 0.467,-2.259 -0.693,-1.119 -1.295,-1.859 -2.406,-2.588 -3.743,-2.456 -8.441,-3.57 -12.641,-4.996 -3.493,-1.185 -6.857,-2.726 -10.369,-3.86 -6.827,-2.203 -14.011,-3.891 -20.998,-5.518 -19.469,-4.535 -45.261,-5.441 -65.128,-4.228 z m 59.607,283.105 c -18.756,2.755 -33.644,5.293 -48.909,17.559 -2.355,1.893 -5.413,4.021 -7.183,6.461 -0.765,1.054 -0.826,1.848 -0.763,3.1 1.237,3.223 25.548,16.653 29.793,19.66 5.381,3.243 10.728,6.543 16.04,9.898 3.273,2.068 6.715,4.695 10.268,6.213 1.125,0.481 1.393,0.535 2.582,0.3 1.965,-1.417 2.267,-4.806 2.631,-7.066 1.435,-8.899 8.023,-48.779 6.197,-55.356 -2.415,-1.68 -7.753,-1.085 -10.656,-0.769 z m 127.48,-211.16 c -2.029,2.033 -2.564,4.111 -2.632,6.959 -0.124,5.189 4.126,10.374 7.621,13.84 14.014,14.174 33.135,22.126 53.068,22.068 1.239,-0.014 2.477,-0.034 3.716,-0.063 1.021,-0.752 1.401,-0.927 1.914,-2.118 -0.349,-2.599 -3.637,-4.38 -5.573,-5.861 -11.858,-9.065 -35.87,-28.33 -48.757,-33.372 -3.151,-1.234 -5.962,-1.64 -9.357,-1.453 z M 306.151,600.333 c -4.737,1.354 -9.48,2.785 -14.26,3.976 -4.341,1.082 -11.229,1.113 -14.938,3.456 0.191,1.993 1.312,2.862 2.806,4.076 4.891,3.971 10.912,7.059 16.222,10.458 18.817,12.044 38.026,23.055 57.804,33.475 4.657,2.454 9.55,4.429 14.2,6.9 4.366,1.715 14.707,7.108 19.296,5.271 1.714,-0.686 2.661,-2.168 3.276,-3.84 1.257,-3.416 1.448,-8.144 1.516,-11.784 -20.024,-10.605 -39.176,-23.376 -58.224,-35.628 -7.923,-5.097 -15.845,-10.437 -24.029,-15.104 -1.133,-0.645 -2.318,-1.382 -3.669,-1.256 z m -62.168,-260.94 c -2.975,0.701 -5.987,0.987 -8.933,1.814 -4.706,1.319 -18.452,6.551 -21.055,10.543 -0.455,0.699 -0.528,1.137 -0.563,1.945 0.67,1.642 1.722,2.139 3.293,2.806 7.862,3.337 16.949,4.372 25.318,5.751 28.133,4.637 55.964,6.793 84.478,6.767 4.49,0.007 26.691,-0.244 29.198,-2.296 0.412,-1.149 0.491,-1.561 0.151,-2.791 -4.682,-4.918 -62.031,-20.38 -71.283,-22.239 -6.841,-1.374 -14.254,-2.257 -21.226,-2.436 -6.138,-0.156 -13.373,-0.752 -19.378,0.136 z"
     id="path1" />
  <path
     fill="#71161c"
     d="m 448.661,28.8569 c 3.963,1.0142 8.416,4.606 11.695,6.9845 21.916,15.8961 38.408,42.2468 45.818,68.0816 1.069,3.826 1.923,7.709 2.558,11.63 0.807,5.093 0.364,13.708 3.334,17.915 0.571,0.81 0.522,0.63 1.391,0.798 0.738,-0.339 1.329,-0.658 1.927,-1.22 3.784,-3.56 6.498,-8.929 8.815,-13.528 12.275,-24.3611 14.839,-50.4291 14.928,-77.2517 3.411,5.3512 8.362,9.8341 12.146,14.9766 11.075,15.0538 19.345,34.6704 22.103,53.1291 6.403,44.601 -3.345,90.023 -27.487,128.069 -3.187,4.997 -7.022,9.263 -10.53,13.99 -7.837,-6.047 -23.843,-12.446 -33.339,-16.057 -75.617,-29.503 -159.9,-27.499 -234.03,5.563 -54.261,24.396 -109.351,80.121 -130.448,135.985 -3.256,1.105 -6.876,1.408 -10.233,2.226 -8.102,1.975 -18.127,6.051 -24.043,12.02 8.709,-24.303 24.94,-47.741 42.1,-66.849 6.908,-7.693 14.339,-14.787 21.711,-22.024 0.131,-0.141 0.283,-0.265 0.394,-0.422 0.688,-0.974 0.7,-1.319 0.573,-2.434 -0.366,-0.421 -0.376,-0.487 -0.92,-0.818 -4.607,-2.8 -19.475,1.595 -24.498,2.822 7.774,-16.42 24.974,-35.583 38.201,-48.172 5.204,-4.953 10.765,-9.957 16.472,-14.327 2.918,-2.234 6.241,-4.053 9.054,-6.393 0.987,-0.821 1.309,-0.923 1.569,-2.17 -0.598,-1.832 -1.773,-2.655 -3.388,-3.633 -9.09,-5.501 -33.645,-11.717 -44.356,-8.947 -0.181,0.047 -0.361,0.099 -0.542,0.148 l -0.444,-0.363 c 0.142,-0.526 0.324,-0.946 0.643,-1.392 3.63,-5.081 9.628,-9.22 14.561,-12.981 12.425,-9.474 27.614,-19.069 43.167,-22.078 6.929,-1.34 14.066,-1.412 21.1,-1.147 4.182,0.157 19.789,3.211 21.98,2.635 0.567,-0.149 0.858,-0.569 1.066,-1.107 0.527,-1.366 -0.163,-3.174 -0.694,-4.425 -2.266,-5.333 -6.436,-10.239 -10.187,-14.601 -15.803,-18.382 -33.655,-28.946 -55.717,-38.157 5.146,-2.15 10.445,-3.367 15.889,-4.494 27.593,-5.71 59.052,-0.11 83.505,13.781 7.776,4.418 14.51,10.145 21.949,15.042 0.998,0.031 0.867,-0.082 1.587,-0.677 2.108,-4.514 -0.56,-13.59 -2.095,-18.222 -6.633,-20.016 -26.478,-48.8123 -45.746,-58.5007 5.09,-0.5196 10.157,-0.4952 15.259,-0.1802 27.7,1.7097 56.535,14.0727 75.607,34.4779 4.54,4.857 9.037,9.928 13.188,15.121 1.827,2.287 3.486,5.47 5.535,7.441 0.844,0.812 1.433,0.859 2.547,0.823 1.021,-1.004 1.249,-2.007 1.464,-3.405 0.494,-3.214 0.27,-6.679 0.201,-9.923 -0.692,-23.7131 -6.722,-46.9647 -17.642,-68.0247 -1.929,-3.7932 -3.749,-7.8128 -6.281,-11.2466 4.655,1.0062 9.03,2.0751 13.501,3.7737 25.953,9.8582 47.016,31.6925 59.477,56.205 3.825,7.5236 6.49,15.5956 9.976,23.2706 0.843,1.855 1.498,3.825 3.502,4.578 1.29,-0.451 1.799,-1.199 2.451,-2.344 2.412,-4.24 5.752,-15.866 6.418,-20.741 0.281,-2.058 0.059,-4.1972 0.206,-6.2709 0.256,-3.5899 1.092,-7.0959 1.235,-10.7208 0.369,-9.3319 -0.702,-23.9625 -2.504,-33.3425 -1.473,-7.668 -3.752,-15.3234 -5.679,-22.8969 z"
     id="path2" />
</svg>
