<?xml version="1.0" encoding="UTF-8"?>
<svg id="Layer_2" data-name="Layer 2" xmlns="http://www.w3.org/2000/svg" viewBox="0 0 169.95 206.38">
  <defs>
    <style>
      .cls-1 {
        fill: #231f20;
      }

      .cls-2 {
        fill: #fff;
      }

      .cls-3 {
        fill: #e63946;
      }
    </style>
  </defs>
  <g id="Layer_5" data-name="Layer 5">
    <g>
      <path class="cls-1" d="M106.03,206.38c-1.33,0-2.57-.18-3.7-.54-1.24-.4-4.9-1.58-15.3-12.64-1.8-.27-4.03-.79-5.76-1.8-.75-.43-2.95-1.7-5.8-7.37l-27.56-16.75c-.78.06-1.71.12-2.66.12-1.79,0-3.18-.18-4.36-.58-1.96-.67-3.67-2.07-5.2-4.27-.36.04-.72.05-1.09.05-1.28,0-2.49-.22-3.61-.66-.34-.13-.66-.29-.96-.48-5.92-3.71-9.36-14.65-10.88-20.84-2.56-10.21-2.93-20.49-1.09-30.55-.58-4.26-2.05-9.57-3.36-10.88,0,0,0,0-.01,0-.05,0-.31-.06-.74-.06-1.8,0-4.31.95-5.55,1.59-.83.43-1.73.63-2.62.63-1.4,0-2.78-.51-3.86-1.49-1.78-1.6-2.38-4.14-1.5-6.37.04-.1,4.23-10.62,9.35-16.64-.7.05-1.13.1-1.14.1-.22.03-.44.04-.66.04-2.17,0-4.19-1.23-5.17-3.21-1.08-2.18-.67-4.8,1.01-6.55.38-.4,9.45-9.75,17.19-13.81-1.46-.35-2.37-.47-2.4-.48-2.55-.33-4.58-2.3-4.97-4.84s.94-5.03,3.27-6.11c1.98-.91,11.42-5.16,18-6.31-2.15-1.43-4.39-2.83-6.49-4.05-2.11-1.23-3.22-3.66-2.76-6.06.46-2.4,2.38-4.25,4.8-4.62.27-.04,6.75-1,13.91-1,2.88,0,5.5.16,7.83.47-.67-.64-1.34-1.26-2-1.83-1.7-1.47-2.38-3.8-1.76-5.95.62-2.16,2.44-3.76,4.67-4.09,2.11-.32,4.2-.48,6.22-.48,5.33,0,10.31,1.12,14.89,3.33-.19-.41-.38-.82-.57-1.22-.83-1.73-.7-3.77.28-5.42.98-1.65,2.75-2.71,4.67-2.82,0,0,.16,0,.46,0,2.22,0,9.98.49,17.18,6.83-.1-.72-.21-1.39-.32-2-.35-2.02.4-4.08,1.97-5.4C98.91.47,100.22,0,101.56,0c.65,0,1.31.11,1.95.34.74.26,7.37,2.81,13.66,10.59.21.26.42.53.62.79.19-1.52.34-2.98.45-4.26.17-2.12,1.5-3.97,3.45-4.81.74-.32,1.52-.48,2.29-.48,1.28,0,2.54.43,3.58,1.25,10.36,8.22,15.09,22.23,12.98,38.44-1.13,8.64-5.48,16.29-8.95,21.21,10.27,6.36,17.68,14.79,20.73,23.78.6,1.61,5.67,4.68,8.1,6.16,4.5,2.73,8.06,4.89,8.99,8.62,1.88,7.44-1.24,13.91-8.12,16.9-.45.2-1.48.58-5.7,2.15-7.08,2.63-27.21,10.1-33.38,12.99-1.16,5.24-3.57,16.9-5.25,25.05-1,4.87-1.64,7.93-1.91,9.21.06.12.13.25.18.36.59,1.13,1.59,3.03,1.28,5.54-.11.9-.38,2.1-.8,3.57,5.12,7.09,7.44,12.76,6.89,16.85-1.04,7.81-10.47,12.13-16.59,12.13h0Z"/>
      <path class="cls-2" d="M163.83,103.04c-.84-3.33-14.84-8.1-16.96-14.33-3.15-9.26-12.01-18.03-24.04-23.89,0,0,10.31-10.77,12-23.7,1.54-11.83-.72-25.15-10.85-33.19,0,0-1.35,16.47-4.98,22.26,0,0-.84-8.89-6.31-15.64-5.46-6.75-11.13-8.79-11.13-8.79,0,0,2.6,14.79.34,22.1,0,0-2.2-8.3-9.42-14.71-6.51-5.78-13.66-5.46-13.66-5.46,0,0,7.87,16.49,6.59,22.28,0,0-2.89-6.22-9.72-11.03-5.18-3.65-12.21-6.15-21.74-4.7,0,0,13.35,11.55,13.24,19.16,0,0-2.86-3.97-12.1-6.54-8.86-2.46-23.79-.21-23.79-.21,0,0,16.31,9.48,19.77,15.26,0,0-5.55-1.38-13.82-.74-5.8.45-17.95,6.05-17.95,6.05,0,0,9.18,1.1,17.78,7.2,0,0-7.27.9-13.33,4.05-7.02,3.64-15.81,12.75-15.81,12.75,0,0,10.93-1.29,16.51,1.85,0,0-6.37,2.88-10.29,7.47-4.36,5.1-8.24,14.63-8.4,15.04.37-.19,8.91-4.58,13.01-.47,3.68,3.7,4.98,14.05,5.1,15.13-1.8,9.19-1.64,19.01.86,28.99.59,2.4,3.81,14.49,8.35,17.34,2.82,1.1,7.04-1.5,9.01-2.91,6.65-4.82,8.55-13.34,14.78-18.66,3.45-2.5,7.71-3.52,11.87-3.94,4.15-.36,8.28.05,12.29.59,4.53.38,9.8,2.1,13.8-.46,2.32-1.82,3.14-4.6,5.47-6.87,1.57-1.62,3.55-2.8,5.56-3.59,1.85-.75,4.65-1.37,6.03-1.53,3.21-.77,6.43-1.48,9.67-2.15,3.24-.66,6.49-1.26,9.76-1.76l.08.29c-6.2,2.41-12.52,4.51-18.89,6.4-3.8.77-7.5,1.99-10.01,4.53-1.3,1.24-2.23,2.86-3.55,4.62-2.66,3.95-8.01,4.48-12.23,3.79-9.5-1.33-20.12-3.99-28.75,1.5-6.14,5.2-7.89,14.17-14.85,18.79-1.09.69-2.19,1.45-3.39,2.02-.23.11-.32.37-.2.59.64,1.17,1.83,3.07,3.18,3.53,1.58.53,5.05.18,6.16.04.24-.03.47.03.68.15l30.08,18.28c.18.11.33.27.42.46.53,1.14,2.52,5.22,4.11,6.14,1.48.86,4.2,1.17,5.23,1.25.26.03.5.14.68.34,1.68,1.82,10.41,11.18,14.02,12.34,3.99,1.28,12.19-2.15,12.82-6.86.55-4.12-5.64-12.49-7.21-14.54-.22-.3-.29-.68-.17-1.02.36-1.09,1.12-3.5,1.28-4.8.21-1.71-2.1-3.21-1.47-6,.58-2.57,6.67-32.59,7.81-37.11.43-1.69,40.15-16.03,41.85-16.77,5.46-2.37,5.67-6.88,4.83-10.21ZM45.15,138.21c-.94,1.44-3.31,3.69-5.52,4.01-2.2.32-5.74-2.73-6.77-4.01-2.15-2.66-4.1-6.43-2.84-7.72,1.26-1.28,12.35,1.86,15.13,3.54.88.53.95,2.73,0,4.18ZM85.38,94.32c-.22,2.83-7.01,10.38-11.09,12.27-4.07,1.89-28.74.71-30.78-1.18-2.04-1.89,1.36-6.61,7.92-10.85,6.57-4.25,22.96-5.89,30.56-4.49,1.3.24,3.62,1.42,3.39,4.25ZM123.85,105.5c-5.07,3-17.08,3.23-22.49,1.59-.93-.28-2.52-1.39-2.15-3.66.36-2.28,5.83-7.93,8.92-9.18,3.09-1.26,20.9,1.34,22.24,3.01,1.34,1.66-1.46,5.25-6.52,8.24ZM91.12,173.71c-.65,1.83-1.63,3.25-3.12,3.71-1.5.46-3.25-.27-7.26-2.18-4.02-1.92-20.1-13.22-21-14.23s-.67-3.57.21-4.39c.88-.81,6.5-1.82,9.34-1.9,2.85-.07,9.66,5.4,11.97,7.24,2.79,2.23,8.02,6.08,9.65,7.34,1.62,1.26.81,2.72.21,4.41ZM93.31,144.69l-.93,12.85c-.21,2.83-3.35,4.36-5.64,2.75l-11.8-7.65c-2.28-1.6-1.28-4.6.89-6.34,2.87-2.3,8.86-5.08,12.34-5.19,2.76-.08,5.35.77,5.14,3.58ZM106.84,194.73c-1.89.89-3.63-.72-5.44-2.33-1.81-1.6-5.2-6.42-5.6-7.39-.39-.96.24-3.61.36-4.18.11-.56-1.14-1.76-1.46-2.49-.31-.72-.31-3.29.63-3.94.95-.64,3.63-.56,4.97.57,1.34,1.12,1.73,3.85,1.73,4.29s1.81,1.89,3,3.1c1.18,1.21,1.81,4.26,1.81,4.26,0,0,1.58,1.93,1.89,3.61.32,1.69,0,3.62-1.89,4.5ZM106.56,163.16c-1.04,4.39-1.58,6.24-2.87,7.14-1.29.9-2.99.79-4.79.16-1.67-.58-3.29-.85-3.24-2.93.05-2.08.38-8.65.42-12.26.03-2.99.11-11.84,1.95-14.05,1.83-2.22,6.13-6.06,7.3-6.25,1.17-.19,3.28,1.24,3.49,2.58.21,1.35-1.21,21.22-2.26,25.61Z"/>
      <path class="cls-1" d="M23.89,116.1c-2.93,0-5.4-2.21-5.72-5.13h0c-.49-4.41-2.08-10.39-3.47-11.79,0,0,0,0,0,0-.05,0-.3-.06-.73-.06-2.03,0-4.73,1.16-5.52,1.57-.84.44-1.75.65-2.66.65-1.4,0-2.79-.51-3.87-1.49-1.78-1.62-2.38-4.17-1.48-6.41.44-1.09,4.43-10.83,9.34-16.6-.7.05-1.13.1-1.13.1-.22.03-.44.04-.66.04-2.17,0-4.19-1.23-5.17-3.21-1.08-2.18-.67-4.8,1.01-6.55.38-.4,9.45-9.74,17.19-13.81-1.46-.35-2.37-.47-2.39-.48-2.55-.33-4.58-2.3-4.97-4.84-.39-2.54.94-5.03,3.27-6.11,1.98-.91,11.42-5.15,18.01-6.31-2.16-1.43-4.39-2.83-6.5-4.05-2.11-1.23-3.22-3.66-2.76-6.06.46-2.4,2.38-4.25,4.8-4.62.27-.04,6.74-1,13.89-1,2.89,0,5.51.16,7.85.48-.65-.63-1.32-1.24-2-1.83-1.7-1.47-2.38-3.8-1.76-5.95s2.44-3.76,4.66-4.1c2.12-.32,4.21-.49,6.23-.49,5.33,0,10.31,1.12,14.88,3.33-.19-.41-.38-.82-.57-1.22-.83-1.73-.7-3.77.28-5.42s2.75-2.71,4.66-2.82c0,0,.16,0,.47,0,2.22,0,9.98.49,17.18,6.83-.1-.72-.21-1.39-.32-2-.35-2.02.4-4.08,1.97-5.4,1.05-.89,2.37-1.35,3.71-1.35.66,0,1.32.11,1.95.34.73.26,7.36,2.81,13.65,10.59.21.26.42.53.62.8.19-1.53.35-2.98.45-4.27.18-2.12,1.5-3.97,3.45-4.81.74-.32,1.51-.47,2.29-.47,1.28,0,2.54.43,3.58,1.25,10.36,8.22,15.09,22.24,12.98,38.44-1.91,14.64-13.08,26.45-13.55,26.94-1.12,1.17-2.63,1.78-4.16,1.78-.96,0-1.92-.24-2.8-.73-.11-.06-12.32-6.66-29.3-6.66-7.86,0-15.57,1.41-22.92,4.18-27.83,10.49-37.71,35.41-38.17,43.3-.17,2.99-2.61,5.35-5.61,5.43-.05,0-.1,0-.15,0Z"/>
      <path class="cls-3" d="M122.84,64.82s10.31-10.76,12-23.7c1.54-11.83-.72-25.15-10.85-33.19,0,0-1.36,16.47-4.98,22.26,0,0-.85-8.89-6.31-15.64-5.46-6.75-11.13-8.79-11.13-8.79,0,0,2.6,14.79.34,22.1,0,0-2.2-8.3-9.42-14.71-6.51-5.79-13.66-5.46-13.66-5.46,0,0,7.87,16.49,6.59,22.28,0,0-2.89-6.21-9.72-11.03-5.18-3.65-12.21-6.15-21.74-4.7,0,0,13.35,11.55,13.25,19.15,0,0-2.86-3.96-12.11-6.54-8.86-2.46-23.79-.21-23.79-.21,0,0,16.31,9.48,19.77,15.27,0,0-5.55-1.39-13.82-.74-5.8.45-17.95,6.05-17.95,6.05,0,0,9.18,1.1,17.78,7.21,0,0-7.27.9-13.33,4.04-7.02,3.64-15.8,12.75-15.8,12.75,0,0,10.93-1.29,16.51,1.86,0,0-6.38,2.88-10.3,7.46-4.45,5.22-8.41,15.05-8.41,15.05,0,0,8.84-4.68,13.02-.48,3.89,3.91,5.12,15.23,5.12,15.23.64-11.06,12.85-37.42,41.89-48.36,30.99-11.68,57.06,2.84,57.06,2.84Z"/>
    </g>
  </g>
</svg>