<?xml version="1.0" encoding="UTF-8"?>
<svg xmlns="http://www.w3.org/2000/svg" xmlns:xlink="http://www.w3.org/1999/xlink" width="906" height="806" viewBox="0 0 906 806"><path fill="#1E2728" d="M437.507 231.099C462.556 229.956 490.139 231.583 514.736 236.33C570.214 247.036 625.866 276.409 663.951 318.421C671.625 326.886 678.511 336.254 685.089 345.583C693.206 357.095 700.449 368.302 711.413 377.437C722.002 386.261 734.827 393.097 747.112 399.23C751.921 401.631 756.953 403.646 761.598 406.362C764.745 408.203 768.095 410.277 768.95 414.062C770.082 419.067 767.259 425.749 763.243 428.79C757.393 433.221 722.753 444.161 713.578 447.334C680.173 459.012 647.024 471.41 614.154 484.518C608.363 486.799 602.564 489.136 596.691 491.196C592.334 492.725 587.639 493.871 583.511 495.95C580.21 497.612 576.818 500.091 574.978 503.356C570.465 511.367 567.895 527.049 565.752 536.134L552.48 593.678L545.424 624.411C543.518 632.366 540.928 640.48 540.167 648.642C539.445 656.388 545.85 661.827 544.98 669.343C544.089 677.046 537.64 685.769 539.554 693.299C542.466 704.761 551.357 718.387 558.293 727.916C563.12 734.547 569.629 741.448 571.823 749.44L572.018 750.16C570.777 753.915 568.724 757.35 566.005 760.222C564.142 762.161 561.96 763.816 559.961 765.617C551.853 772.922 547.715 774.412 536.688 774.5C520.67 774.629 491.28 745.286 480.189 733.726C477.013 730.416 474.306 726.669 471.019 723.475L470.633 723.103C452.358 721.342 446.096 717.801 438.344 700.787C436.76 697.311 435.261 694.199 431.909 692.056C428.816 690.08 424.885 689.309 421.576 687.695C408.317 681.225 395.006 674.837 382.249 667.403C368.626 659.463 354.622 651.702 341.492 642.99C333.984 638.008 326.397 633.082 318.987 627.958C312.751 623.645 306.665 619.004 300.067 615.254C296.007 615.217 291.869 615.357 287.821 615.104C280.309 614.634 273.315 611.49 268.375 605.812C272.507 598.415 279.588 592.547 284.539 585.553C297.835 566.769 306.45 546.341 323.254 530.104C331.485 521.81 343.127 515.274 354.701 513.425C376.168 509.995 406.411 519.143 428.127 522.594C435.322 523.737 442.627 525.373 449.928 524.431C483.822 520.059 502.781 494.826 531.876 481.088C550.528 472.28 570.218 468.771 590.238 464.55C597.614 462.994 604.824 460.942 612.249 459.484C619.829 457.996 678.295 442.545 681.464 439.886C681.73 439.662 681.852 439.308 682.045 439.019C681.904 437.893 681.721 437.428 681.009 436.543C675.637 434.086 584.064 451.475 571.163 454.137C563.533 455.711 555.778 457.67 548.213 459.548C540.567 461.446 531.966 464.141 524.77 467.344C496.645 479.862 480.242 502.522 448.402 508.447C440.294 509.956 433.313 508.11 425.402 506.681C397.392 501.623 371.226 492.628 342.409 499.328C306.27 507.73 291.205 545.381 273.588 573.708C268.442 581.982 262.251 592.671 251.859 594.831C244.935 596.27 234.415 593.05 228.726 589.039C225.119 586.495 221.817 583.029 219.501 579.27C211.177 565.764 202.846 531.049 199.908 514.4C196.258 494.589 195.226 474.385 196.838 454.306C197.542 445.047 198.47 435.883 200.326 426.77C206.842 394.771 222.627 365.035 241.251 338.538C252.577 322.425 265.769 308.734 280.655 295.932C314.199 266.751 354.534 246.46 397.959 236.92C410.915 233.953 424.419 233.383 437.507 231.099ZM503.591 539.162C501.562 550.099 500.947 561.243 499.302 572.231C498.622 576.776 497.56 581.251 496.92 585.807C495.488 596.007 494.591 606.296 493.281 616.516C492.547 622.249 490.996 628.142 491.068 633.919C491.077 634.608 491.081 635.291 491.104 635.979C493.742 637.27 496.367 638.661 499.177 639.539C501.761 640.927 503.842 642.259 506.883 641.475C508.722 641.001 510.532 639.294 511.402 637.639C513.914 632.855 516.504 616.737 517.837 610.344C518.714 606.134 519.94 602.02 520.868 597.827C521.874 593.285 522.567 588.678 523.579 584.134L531.174 550.603C532.949 542.986 535.552 535.489 535.93 527.609C535.392 526.615 534.803 525.669 533.647 525.309C532.812 525.05 532.013 525.058 531.155 525.142C522.549 529.36 509.78 531.911 503.591 539.162ZM486.078 669.777C486.148 674.873 491.179 678.394 492.524 683.273C494.02 688.696 492.448 693.137 491.561 698.427C490.463 704.968 504.061 718.637 508.65 723.096C512.307 726.651 517.977 733.072 522.899 734.029C523.952 733.343 524.138 733.297 524.603 732.15C524.561 731.171 524.424 730.422 524.046 729.519C521.934 724.475 519.146 719.705 516.876 714.727C514.581 709.692 512.762 704.242 510.217 699.352C509.687 698.333 508.843 697.452 508.005 696.681C504.759 693.691 501.311 692.155 498.82 688.267C496.2 684.179 494.129 672.273 490.862 670.515C489.525 669.795 487.569 669.852 486.078 669.777ZM400.257 272.211C392.95 273.557 369.883 274.582 365.348 279.582C365.073 280.71 364.988 280.788 365.455 281.834C366.481 282.545 367.272 282.796 368.511 282.958C373.141 283.565 378.109 283.11 382.814 283.511C398.778 284.871 414.833 286.453 430.759 288.2L465.15 292.22C470.435 292.848 475.663 293.853 480.977 294.217C487.499 294.988 506.626 298.472 511.332 295.66C511.958 294.65 511.922 294.592 511.799 293.401C511.106 292.282 510.504 291.542 509.393 290.813C505.65 288.357 500.952 287.243 496.752 285.817C493.259 284.632 489.895 283.091 486.383 281.957C479.556 279.754 472.372 278.066 465.385 276.439C445.916 271.904 420.124 270.998 400.257 272.211ZM459.864 555.316C441.108 558.071 426.22 560.609 410.955 572.875C408.6 574.768 405.542 576.896 403.772 579.336C403.007 580.39 402.946 581.184 403.009 582.436C404.246 585.659 428.557 599.089 432.802 602.096C438.183 605.339 443.53 608.639 448.842 611.994C452.115 614.062 455.557 616.689 459.11 618.207C460.235 618.688 460.503 618.742 461.692 618.507C463.657 617.09 463.959 613.701 464.323 611.441C465.758 602.542 472.346 562.662 470.52 556.085C468.105 554.405 462.767 555 459.864 555.316ZM587.344 344.156C585.315 346.189 584.78 348.267 584.712 351.115C584.588 356.304 588.838 361.489 592.333 364.955C606.347 379.129 625.468 387.081 645.401 387.023C646.64 387.009 647.878 386.989 649.117 386.96C650.138 386.208 650.518 386.033 651.031 384.842C650.682 382.243 647.394 380.462 645.458 378.981C633.6 369.916 609.588 350.651 596.701 345.609C593.55 344.375 590.739 343.969 587.344 344.156ZM372.151 600.333C367.414 601.687 362.671 603.118 357.891 604.309C353.55 605.391 346.662 605.422 342.953 607.765C343.144 609.758 344.265 610.627 345.759 611.841C350.65 615.812 356.671 618.9 361.981 622.299C380.798 634.343 400.007 645.354 419.785 655.774C424.442 658.228 429.335 660.203 433.985 662.674C438.351 664.389 448.692 669.782 453.281 667.945C454.995 667.259 455.942 665.777 456.557 664.105C457.814 660.689 458.005 655.961 458.073 652.321C438.049 641.716 418.897 628.945 399.849 616.693C391.926 611.596 384.004 606.256 375.82 601.589C374.687 600.944 373.502 600.207 372.151 600.333ZM309.983 339.393C307.008 340.094 303.996 340.38 301.05 341.207C296.344 342.526 282.598 347.758 279.995 351.75C279.54 352.449 279.467 352.887 279.432 353.695C280.102 355.337 281.154 355.834 282.725 356.501C290.587 359.838 299.674 360.873 308.043 362.252C336.176 366.889 364.007 369.045 392.521 369.019C397.011 369.026 419.212 368.775 421.719 366.723C422.131 365.574 422.21 365.162 421.87 363.932C417.188 359.014 359.839 343.552 350.587 341.693C343.746 340.319 336.333 339.436 329.361 339.257C323.223 339.101 315.988 338.505 309.983 339.393Z"/><path fill="#71161c" d="M514.661 28.8569C518.624 29.8711 523.077 33.4629 526.356 35.8414C548.272 51.7375 564.764 78.0882 572.174 103.923C573.243 107.749 574.097 111.632 574.732 115.553C575.539 120.646 575.096 129.261 578.066 133.468C578.637 134.278 578.588 134.098 579.457 134.266C580.195 133.927 580.786 133.608 581.384 133.046C585.168 129.486 587.882 124.117 590.199 119.518C602.474 95.1569 605.038 69.0889 605.127 42.2663C608.538 47.6175 613.489 52.1004 617.273 57.2429C628.348 72.2967 636.618 91.9133 639.376 110.372C645.779 154.973 636.031 200.395 611.889 238.441C608.702 243.438 604.867 247.704 601.359 252.431C593.522 246.384 577.516 239.985 568.02 236.374C492.403 206.871 408.12 208.875 333.99 241.937C279.729 266.333 224.639 322.058 203.542 377.922C200.286 379.027 196.666 379.33 193.309 380.148C185.207 382.123 175.182 386.199 169.266 392.168C177.975 367.865 194.206 344.427 211.366 325.319C218.274 317.626 225.705 310.532 233.077 303.295C233.208 303.154 233.36 303.03 233.471 302.873C234.159 301.899 234.171 301.554 234.044 300.439C233.678 300.018 233.668 299.952 233.124 299.621C228.517 296.821 213.649 301.216 208.626 302.443C216.4 286.023 233.6 266.86 246.827 254.271C252.031 249.318 257.592 244.314 263.299 239.944C266.217 237.71 269.54 235.891 272.353 233.551C273.34 232.73 273.662 232.628 273.922 231.381C273.324 229.549 272.149 228.726 270.534 227.748C261.444 222.247 236.889 216.031 226.178 218.801C225.997 218.848 225.817 218.9 225.636 218.949L225.192 218.586C225.334 218.06 225.516 217.64 225.835 217.194C229.465 212.113 235.463 207.974 240.396 204.213C252.821 194.739 268.01 185.144 283.563 182.135C290.492 180.795 297.629 180.723 304.663 180.988C308.845 181.145 324.452 184.199 326.643 183.623C327.21 183.474 327.501 183.054 327.709 182.516C328.236 181.15 327.546 179.342 327.015 178.091C324.749 172.758 320.579 167.852 316.828 163.49C301.025 145.108 283.173 134.544 261.111 125.333C266.257 123.183 271.556 121.966 277 120.839C304.593 115.129 336.052 120.729 360.505 134.62C368.281 139.038 375.015 144.765 382.454 149.662C383.452 149.693 383.321 149.58 384.041 148.985C386.149 144.471 383.481 135.395 381.946 130.763C375.313 110.747 355.468 81.9507 336.2 72.2623C341.29 71.7427 346.357 71.7671 351.459 72.0821C379.159 73.7918 407.994 86.1548 427.066 106.56C431.606 111.417 436.103 116.488 440.254 121.681C442.081 123.968 443.74 127.151 445.789 129.122C446.633 129.934 447.222 129.981 448.336 129.945C449.357 128.941 449.585 127.938 449.8 126.54C450.294 123.326 450.07 119.861 450.001 116.617C449.309 92.9039 443.279 69.6523 432.359 48.5923C430.43 44.7991 428.61 40.7795 426.078 37.3457C430.733 38.3519 435.108 39.4208 439.579 41.1194C465.532 50.9776 486.595 72.8119 499.056 97.3244C502.881 104.848 505.546 112.92 509.032 120.595C509.875 122.45 510.53 124.42 512.534 125.173C513.824 124.722 514.333 123.974 514.985 122.829C517.397 118.589 520.737 106.963 521.403 102.088C521.684 100.03 521.462 97.8908 521.609 95.8171C521.865 92.2272 522.701 88.7212 522.844 85.0963C523.213 75.7644 522.142 61.1338 520.34 51.7538C518.867 44.0858 516.588 36.4304 514.661 28.8569Z"/><path fill="#1E2728" d="M796.016 491.205C803.019 489.737 822.318 492.715 829.149 494.921C849.859 501.609 866.873 515.049 876.712 534.651C885.664 552.487 887.876 575.098 883.013 594.437C881.537 600.308 878.095 605.825 877.312 611.813C876.273 619.75 878.848 628.973 876.17 636.531C872.473 646.965 863.661 646.226 855.4 650.313C843.747 656.076 848.251 678.471 844.558 689.144C842.771 690.297 841.072 691.303 838.986 691.855C836.911 692.404 835.008 692.456 833.119 691.37C830.568 688.263 830.773 683.265 830.348 679.426C830.071 676.92 829.472 673.098 827.192 671.621C826.451 671.141 825.592 671.065 824.748 671.274C823.881 671.488 822.524 672.099 821.934 672.785C819.166 676.004 822.909 690.164 819.368 696.35C819.275 696.513 819.179 696.673 819.085 696.834C817.174 697.005 815.142 697.301 813.227 697.224C811.627 697.16 809.792 696.318 808.763 695.085C805.522 691.202 807.597 683.03 807.866 678.343C807.035 677.501 806.15 676.481 804.972 676.15C803.472 675.729 800.794 675.571 799.456 676.545C796.744 678.519 798.137 686.641 798.055 689.77C797.996 692.023 797.857 694.562 795.986 696.113C794.637 697.231 790.925 697.395 789.261 697.198C778.233 695.893 787.7 677.57 784.031 672.559C782.525 671.755 780.54 671.537 778.891 672.017C773.283 673.652 775.512 685.088 773.054 689.657C772.373 690.924 771.322 691.948 769.88 692.251C766.932 692.87 763.808 691.112 761.36 689.67C756.928 681.875 758.734 672.649 757.613 663.983C755.328 646.335 744.004 651.789 734.002 643.648C731.282 641.434 729.236 638.23 728.434 634.808C727.84 632.277 727.86 629.743 727.915 627.164C728.021 622.19 728.609 616.68 727.753 611.783C726.16 602.664 721.471 595.334 720.257 584.597C717.745 562.396 721.729 539.428 735.975 521.672C752.658 500.88 770.396 494.063 796.016 491.205ZM763.312 618.89C769.852 618.918 774.022 617.186 778.66 612.622C786.155 605.247 791.011 594.366 791.039 583.808C791.051 579.267 790.47 574.237 787.058 570.901C783.143 567.073 776.018 566.012 770.749 566.226C770.219 566.248 769.69 566.286 769.162 566.339C758.446 568.616 750.267 570.69 743.875 580.417C739.896 586.473 738.951 594.553 740.413 601.584C741.596 607.278 746.259 612.973 751.091 616.078C755.109 618.661 758.722 618.881 763.312 618.89ZM847.059 618.825C853.279 617.451 858.327 613.624 861.773 608.286C865.466 602.567 866.044 594.625 864.526 588.069C862.966 581.337 857.744 574.957 851.89 571.421C847.012 568.475 838.824 566.152 833.156 566.377C827.662 567.204 821.314 567.227 817.705 572.095C814.131 576.915 814.417 585.4 815.392 591.087C817.029 600.639 822.297 610.223 830.376 615.812C835.55 619.391 841.122 619 847.059 618.825ZM803.454 636.565C805.224 639.875 806.983 644.603 810.815 645.914C812.157 646.373 814.228 646.449 815.509 645.748C816.946 644.962 817.572 643.227 817.79 641.7C818.743 635.013 810.852 614.636 806.608 609.277C805.802 608.26 804.752 607.097 803.393 606.924C802.863 606.857 802.49 606.878 801.971 606.886C799.551 608.97 797.644 611.084 795.954 613.806C792.75 618.966 787.502 632.493 787.17 638.55C787.056 640.633 787.529 642.771 788.996 644.321C790.02 645.402 791.35 646.144 792.86 646.176C794.896 646.22 797.04 645.194 798.464 643.775C800.566 641.682 801.24 638.66 803.454 636.565Z"/><path fill="#1E2728" d="M104.731 650.85C106.575 648.759 107.46 645.862 108.591 643.34C110.875 638.247 113.753 633.186 117.845 629.32C121.158 626.189 124.031 624.778 128.63 625.315C129.682 625.438 131.175 625.799 132.214 625.657C132.919 625.561 133.283 625.401 133.635 624.812C134.449 623.453 134.13 618.97 133.602 617.528C133.212 616.46 132.489 615.697 131.372 615.369C129.533 614.828 127.072 615.116 125.141 615.128C119.326 615.166 113.59 614.51 108.222 612.119C102.217 609.443 98.2787 604.293 96.2288 598.09C95.8113 596.827 95.9495 595.997 96.5491 594.85C97.3518 594.322 98.0047 594.063 98.9426 593.858C104.34 592.679 110.021 592.663 115.514 592.234C125.129 591.484 144.809 588.306 152.952 593.895C161.218 599.568 167.228 620.855 168.706 630.381C171.027 645.334 165.322 659.973 156.593 671.942C146.786 685.39 131.806 693.781 115.467 696.302C98.4955 698.922 80.8085 696.567 66.6875 686.172C58.4841 680.133 52.9923 671.729 49.4385 662.265C46.992 655.749 46.0198 648.827 44.8974 641.998C44.2579 638.107 43.3458 634.272 42.7717 630.368C41.6638 622.836 40.9369 615.201 39.5216 607.722C35.0843 584.272 29.9606 560.978 25.6438 537.514C24.6712 532.227 23.1127 527.038 22.3151 521.725C21.7488 517.952 21.1538 511.741 23.6825 508.577C25.6876 506.067 28.4016 505.288 31.4153 504.831C33.2218 505.404 34.9224 506.12 36.654 506.881C42.9977 515.437 48.5464 540.722 51.5681 551.652C53.5525 558.83 55.9185 566.065 57.5172 573.332C59.8485 583.93 62.6074 616.557 70.874 623.243C74.8805 626.484 81.0588 626.663 85.9681 625.959C91.8228 625.119 95.0216 622.149 98.4652 617.611C104.298 619.464 110.584 620.673 116.677 621.252C114.513 624.282 111.749 626.902 109.489 629.876C105.263 635.436 100.526 643.307 101.548 650.519L104.731 650.85Z"/><path fill="#DAD8D9" d="M104.731 650.85C104.324 652.442 104.026 655.366 102.708 656.407L102.072 655.935C101.561 654.124 101.579 652.383 101.548 650.519L104.731 650.85Z"/><path fill="#1E2728" d="M137.083 87.4466C138.092 87.8707 138.654 88.5178 139.19 89.4495C142.356 94.9505 143.913 102 145.841 108.06L155.272 137.653C156.359 141.013 157.222 145.424 159.17 148.334C159.939 149.484 160.395 149.594 161.724 149.775C167.802 150.602 174.457 149.425 180.592 149.229C186.825 149.03 193.071 149.827 199.304 149.955C205.565 150.084 219.978 149.063 225.251 150.475C226.544 150.822 227.151 151.447 227.788 152.621C227.805 153.888 227.795 154.397 226.982 155.403C224.482 158.496 219.845 161.123 216.619 163.464C210.113 168.187 203.673 172.972 197.053 177.537C189.048 183.057 180.274 188.011 173.638 195.17C178.485 207.006 181.498 219.893 185.505 232.039C187.966 239.499 191.462 246.826 193.244 254.489C193.662 256.286 194.079 258.074 193.043 259.723C192.029 260.239 191.52 260.502 190.38 260.161C186.015 258.857 180.579 253.587 176.932 250.801C171.717 246.816 140.955 223.254 137.666 222.609C137.409 222.559 137.147 222.529 136.888 222.489C132.809 223.671 121.146 233.786 116.993 236.856C106.03 244.962 94.8688 253.763 83.264 260.895C82.3065 260.804 81.6473 260.614 81.1105 259.716C80.2115 258.212 80.6058 256.16 80.9973 254.563C81.8814 250.954 83.7545 247.502 84.8977 243.932L95.2452 211.258C96.9468 205.824 98.9456 200.532 100.344 195.002C94.4351 188.96 85.8646 184.033 78.9112 179.234C70.991 173.69 63.1698 168.006 55.4516 162.184C52.2049 159.747 47.7438 157.121 45.4546 153.737C44.8546 152.85 44.8039 152.683 44.9855 151.684C46.3301 150.429 48.1014 150.197 49.8764 150.006C54.6965 149.488 59.9148 149.962 64.7932 149.886C80.9882 149.747 97.1844 149.815 113.378 150.091C114.505 148.949 115.501 147.846 116.226 146.4C118.481 141.902 119.398 136.744 120.902 131.963C124.137 121.783 127.538 111.657 131.103 101.589C132.434 97.7149 133.473 93.0249 135.352 89.4207C135.767 88.6258 136.408 88.019 137.083 87.4466Z"/><path fill="#1E2728" d="M779.632 90.8925L780.526 91.0426C783.355 96.9411 760.873 149.528 757.941 159.188C757.353 161.123 756.939 162.228 757.905 164.056C761.18 166.111 782.899 164.934 788.678 165.179C792.281 165.331 795.828 165.853 799.383 166.426C791.778 179.969 774.681 194.294 763.769 205.771C750.36 219.877 737.391 234.348 723.539 248.042L719.311 252.186C722.446 239.342 727.237 225.945 731.965 213.587C734.595 206.713 737.767 199.714 739.799 192.649C740.542 190.067 741.162 187.265 740.844 184.573C737.98 181.223 713.164 182.835 706.882 181.532C705.278 181.199 703.868 180.849 702.935 179.412C705.486 173.689 712.557 167.444 716.762 162.549C731.503 145.405 746.412 128.405 761.487 111.553C767.537 104.692 772.867 97.0848 779.632 90.8925Z"/><path fill="#1E2728" d="M134.863 476.882C137.552 477.24 140.558 478.873 142.335 480.895C144.212 483.031 145.387 485.766 146.052 488.509C148.39 498.154 148.441 508.965 149.069 518.855C150.457 540.729 151.881 563.052 150.873 584.955C148.163 584.145 145.301 583.753 142.516 583.262C137.396 582.65 131.95 583.021 126.797 583.069C123.441 566.95 124.783 547.703 124.748 531.207C124.722 519.166 124.081 506.545 125.188 494.572C125.557 490.579 126.228 485.818 128.069 482.204C129.634 479.132 131.668 477.869 134.863 476.882Z"/><path fill="#1E2728" d="M76.418 558.376C77.5104 558.18 79.1312 558.538 80.2068 558.82C82.0112 559.291 83.3425 560.559 84.2613 562.146C86.8296 566.583 86.6717 571.358 87.6439 576.22C88.4731 580.365 90.2588 584.903 89.8831 589.168C89.6198 592.155 87.649 595.677 86.7735 598.642C88.0937 602.796 91.334 607.972 89.5926 612.37C88.5664 614.963 86.1751 616.131 83.7289 617.079C81.1782 617.162 78.69 617.255 76.4384 615.816C73.7227 614.081 72.8982 611.722 72.2743 608.723C70.7175 601.242 63.4579 568.582 67.2948 563.142C69.5241 559.982 72.8186 559.043 76.418 558.376Z"/><path fill="#1E2728" d="M103.222 553.083C105.91 552.955 108.328 553.112 110.545 554.8C117.276 559.927 118.058 575.717 119.339 583.711C116.094 584.841 113.011 585.03 109.603 585.295C106.064 585.461 102.613 586.07 99.0281 586.15C97.3214 577.065 94.6536 568.758 95.1254 559.375C97.3287 555.689 99.2242 554.378 103.222 553.083Z"/></svg>